<svg xmlns="http://www.w3.org/2000/svg" width="48" height="48" viewBox="0 0 48 48"><path fill="#0b2a4a" d="M24 2l20 7v14c0 11-8 20-20 24C12 43 4 34 4 23V9z"/><path fill="#0b2a4a" d="M24 6l16 5.6V23c0 9-6.5 16.4-16 19.8C14.5 39.4 8 32 8 23V11.6z"/><rect x="14" y="19" width="20" height="3" fill="#c9a227"/><rect x="16" y="22" width="4" height="10" fill="#c9a227"/><rect x="22" y="22" width="4" height="10" fill="#c9a227"/><rect x="28" y="22" width="4" height="10" fill="#c9a227"/><rect x="13" y="32" width="22" height="3" fill="#c9a227"/><path fill="#c9a227" d="M24 12l10 6H14z"/></svg>
